# xmcd
#
# Track frame offsets:
#	150
#	17735
#	32811
#	49181
#	70527
#	83763
#	98319
#	111333
#	122446
#	138704
#	153046
#	168216
#	184029
#	188220
#	203065
#
# Disc length: 2886 seconds
#
# Revision: 1
# Processed by: cddbd v1.5.2PL0 Copyright (c) Steve Scherf et al.
# Submitted via: audiograbber 1.83.01
#
DISCID=b70b440f
DTITLE=De Mannen van Bla Bla - Hey... wij willen ijsberen zien
DYEAR=2009
DGENRE=Hollands
TTITLE0=De Mannen van Bla Bla - IJsberen
TTITLE1=De Mannen van Bla Bla - Verdomd, ik wil je
TTITLE2=De Mannen van Bla Bla - O
TTITLE3=De Mannen van Bla Bla - Suzanne
TTITLE4=De Mannen van Bla Bla - Mijn fiets is gejat
TTITLE5=De Mannen van Bla Bla - 't Dondert and 't bliksemt
TTITLE6=De Mannen van Bla Bla - Viva Hollandia
TTITLE7=De Mannen van Bla Bla - Gamba
TTITLE8=De Mannen van Bla Bla - Want het is een mooie dag
TTITLE9=De Mannen van Bla Bla - Cowboys and Indianen
TTITLE10=De Mannen van Bla Bla - Schatje, mag ik je foto
TTITLE11=De Mannen van Bla Bla - Ik wil je, blijf bij me
TTITLE12=De Mannen van Bla Bla - De volgende rit
TTITLE13=De Mannen van Bla Bla - Mijn houten been (2009)
TTITLE14=De Mannen van Bla Bla - Op wintersport
EXTD=
EXTT0=
EXTT1=
EXTT2=
EXTT3=
EXTT4=
EXTT5=
EXTT6=
EXTT7=
EXTT8=
EXTT9=
EXTT10=
EXTT11=
EXTT12=
EXTT13=
EXTT14=
PLAYORDER=
